<svg width="40" height="50" viewBox="0 0 40 50" fill="none" xmlns="http://www.w3.org/2000/svg">
<path d="M39.8732 44.1181L33.5185 28.4571C33.3566 28.0582 32.9086 27.8686 32.5177 28.0339C32.1269 28.1993 31.9412 28.6567 32.1032 29.0555L37.848 43.2135L32.6079 41.6635C32.2639 41.5617 31.8966 41.717 31.7239 42.0374L29.0922 46.9158L22.928 31.7242C30.0426 30.3236 35.4333 23.9203 35.4333 16.255C35.4334 7.56768 28.51 0.5 20 0.5C11.49 0.5 4.5666 7.56768 4.5666 16.255C4.5666 19.7737 5.70267 23.0264 7.61981 25.6518L0.126905 44.1181C0.0142583 44.3959 0.0674668 44.7149 0.263858 44.9388C0.460148 45.1628 0.764999 45.252 1.04779 45.1684L7.22989 43.3397L10.3346 49.0953C10.4698 49.3458 10.7275 49.5 11.0053 49.5C11.0194 49.5 11.0336 49.4996 11.0478 49.4989C11.3419 49.4822 11.6004 49.295 11.7132 49.0173L17.6505 34.3848C17.8124 33.9858 17.6268 33.5284 17.2359 33.3632C16.8451 33.1979 16.3971 33.3873 16.2352 33.7863L10.9077 46.9158L8.27618 42.0374C8.10338 41.717 7.73583 41.5617 7.39206 41.6635L2.1521 43.2135L8.72881 27.005C11.5473 30.0827 15.5571 32.0098 20 32.0098C20.4587 32.0098 20.9123 31.988 21.3609 31.9479L28.287 49.0173C28.3996 49.295 28.6583 49.4822 28.9522 49.4987C28.9665 49.4996 28.9806 49.5 28.9948 49.5C29.2727 49.5 29.5304 49.3458 29.6655 49.0953L32.7703 43.3397L38.9524 45.1684C39.2354 45.2521 39.5399 45.1628 39.7363 44.9388C39.9327 44.7149 39.9858 44.3959 39.8732 44.1181ZM6.09851 16.255C6.09851 8.42997 12.3347 2.06383 20 2.06383C27.6653 2.06383 33.9014 8.42997 33.9014 16.255C33.9014 24.0799 27.6653 30.446 20 30.446C12.3347 30.446 6.09851 24.0799 6.09851 16.255Z" fill="#FF8A00"/>
<path d="M28.8504 13.3194C28.7623 13.0423 28.5302 12.8381 28.2487 12.7899L23.0946 11.9069L20.6794 7.17594C20.5474 6.91749 20.2857 6.75537 20.0001 6.75537C19.7147 6.75537 19.4528 6.91749 19.3209 7.17594L16.9055 11.9069L11.7516 12.7899C11.47 12.838 11.2381 13.0422 11.1498 13.3194C11.0616 13.5966 11.1317 13.9008 11.3317 14.1088L14.993 17.9157L14.223 23.1925C14.1809 23.4807 14.2993 23.7689 14.5304 23.9403C14.7612 24.1115 15.0664 24.1374 15.3219 24.0076L20.0001 21.6294L24.6782 24.0076C24.7863 24.0626 24.9032 24.0897 25.0196 24.0897C25.1786 24.0897 25.3366 24.0392 25.4699 23.9404C25.7009 23.769 25.8193 23.4808 25.7773 23.1926L25.0073 17.9158L28.6686 14.1088C28.8686 13.9008 28.9386 13.5966 28.8504 13.3194ZM23.6469 17.098C23.4786 17.2731 23.4005 17.5185 23.4359 17.761L24.0456 21.9389L20.3416 20.056C20.234 20.0013 20.1171 19.9739 20.0001 19.9739C19.8832 19.9739 19.7661 20.0012 19.6587 20.056L15.9547 21.9389L16.5644 17.761C16.5999 17.5185 16.5217 17.273 16.3534 17.098L13.4545 14.0838L17.5353 13.3847C17.7722 13.3441 17.9768 13.1924 18.0878 12.9749L20.0001 9.22914L21.9125 12.975C22.0236 13.1925 22.228 13.3442 22.465 13.3848L26.5458 14.0839L23.6469 17.098Z" fill="#FF8A00"/>
<path d="M31.6029 17.0437C31.1835 16.9864 30.7984 17.2879 30.743 17.7161C30.0325 23.1903 25.414 27.3185 20 27.3185C14.0241 27.3185 9.16229 22.3555 9.16229 16.255C9.16229 10.1545 14.0241 5.19152 20 5.19152C25.4141 5.19152 30.0325 9.31961 30.743 14.7938C30.7984 15.222 31.1842 15.5237 31.6029 15.4663C32.0221 15.4096 32.3172 15.0165 32.2615 14.5885C31.4506 8.33982 26.1793 3.62769 20 3.62769C13.1794 3.62769 7.63037 9.29219 7.63037 16.255C7.63037 23.2178 13.1794 28.8822 20 28.8822C26.1793 28.8822 31.4506 24.17 32.2616 17.9214C32.3172 17.4934 32.0222 17.1004 31.6029 17.0437Z" fill="#FF8A00"/>
</svg>
