<svg width="45" height="46" viewBox="0 0 45 46" fill="none" xmlns="http://www.w3.org/2000/svg">
<path d="M41.25 5H37.5V3.5C37.5 2.70435 37.1839 1.94129 36.6213 1.37868C36.0587 0.816071 35.2957 0.5 34.5 0.5C33.7043 0.5 32.9413 0.816071 32.3787 1.37868C31.8161 1.94129 31.5 2.70435 31.5 3.5V5H25.5V3.5C25.5 2.70435 25.1839 1.94129 24.6213 1.37868C24.0587 0.816071 23.2956 0.5 22.5 0.5C21.7044 0.5 20.9413 0.816071 20.3787 1.37868C19.8161 1.94129 19.5 2.70435 19.5 3.5V5H13.5V3.5C13.5 2.70435 13.1839 1.94129 12.6213 1.37868C12.0587 0.816071 11.2956 0.5 10.5 0.5C9.70435 0.5 8.94129 0.816071 8.37868 1.37868C7.81607 1.94129 7.5 2.70435 7.5 3.5V5H3.75C2.75544 5 1.80161 5.39509 1.09835 6.09835C0.395088 6.80161 0 7.75544 0 8.75V38.75C0 39.7446 0.395088 40.6984 1.09835 41.4016C1.80161 42.1049 2.75544 42.5 3.75 42.5H24.75C24.9489 42.5 25.1397 42.421 25.2803 42.2803C25.421 42.1397 25.5 41.9489 25.5 41.75C25.5 41.5511 25.421 41.3603 25.2803 41.2197C25.1397 41.079 24.9489 41 24.75 41H3.75C3.15381 40.9982 2.58255 40.7606 2.16098 40.339C1.73941 39.9175 1.50178 39.3462 1.5 38.75V15.5H43.5V28.25C43.5 28.4489 43.579 28.6397 43.7197 28.7803C43.8603 28.921 44.0511 29 44.25 29C44.4489 29 44.6397 28.921 44.7803 28.7803C44.921 28.6397 45 28.4489 45 28.25V8.75C45 7.75544 44.6049 6.80161 43.9016 6.09835C43.1984 5.39509 42.2446 5 41.25 5ZM33 3.5C33 3.10218 33.158 2.72064 33.4393 2.43934C33.7206 2.15804 34.1022 2 34.5 2C34.8978 2 35.2794 2.15804 35.5607 2.43934C35.842 2.72064 36 3.10218 36 3.5V8C36 8.39782 35.842 8.77936 35.5607 9.06066C35.2794 9.34196 34.8978 9.5 34.5 9.5C34.1022 9.5 33.7206 9.34196 33.4393 9.06066C33.158 8.77936 33 8.39782 33 8V3.5ZM21 3.5C21 3.10218 21.158 2.72064 21.4393 2.43934C21.7206 2.15804 22.1022 2 22.5 2C22.8978 2 23.2794 2.15804 23.5607 2.43934C23.842 2.72064 24 3.10218 24 3.5V8C24 8.39782 23.842 8.77936 23.5607 9.06066C23.2794 9.34196 22.8978 9.5 22.5 9.5C22.1022 9.5 21.7206 9.34196 21.4393 9.06066C21.158 8.77936 21 8.39782 21 8V3.5ZM9 3.5C9 3.10218 9.15804 2.72064 9.43934 2.43934C9.72064 2.15804 10.1022 2 10.5 2C10.8978 2 11.2794 2.15804 11.5607 2.43934C11.842 2.72064 12 3.10218 12 3.5V8C12 8.39782 11.842 8.77936 11.5607 9.06066C11.2794 9.34196 10.8978 9.5 10.5 9.5C10.1022 9.5 9.72064 9.34196 9.43934 9.06066C9.15804 8.77936 9 8.39782 9 8V3.5ZM43.5 14H1.5V8.75C1.50178 8.15381 1.73941 7.58255 2.16098 7.16098C2.58255 6.7394 3.15381 6.50178 3.75 6.5H7.5V8C7.5 8.79565 7.81607 9.55871 8.37868 10.1213C8.94129 10.6839 9.70435 11 10.5 11C11.2956 11 12.0587 10.6839 12.6213 10.1213C13.1839 9.55871 13.5 8.79565 13.5 8V6.5H19.5V8C19.5 8.79565 19.8161 9.55871 20.3787 10.1213C20.9413 10.6839 21.7044 11 22.5 11C23.2956 11 24.0587 10.6839 24.6213 10.1213C25.1839 9.55871 25.5 8.79565 25.5 8V6.5H31.5V8C31.5 8.79565 31.8161 9.55871 32.3787 10.1213C32.9413 10.6839 33.7043 11 34.5 11C35.2957 11 36.0587 10.6839 36.6213 10.1213C37.1839 9.55871 37.5 8.79565 37.5 8V6.5H41.25C41.8462 6.50178 42.4175 6.7394 42.839 7.16098C43.2606 7.58255 43.4982 8.15381 43.5 8.75V14Z" fill="#FF8A00"/>
<path d="M21 20.75C21 20.3522 20.842 19.9706 20.5607 19.6893C20.2794 19.408 19.8978 19.25 19.5 19.25H16.5C16.1022 19.25 15.7206 19.408 15.4393 19.6893C15.158 19.9706 15 20.3522 15 20.75V23C15 23.3978 15.158 23.7794 15.4393 24.0607C15.7206 24.342 16.1022 24.5 16.5 24.5H19.5C19.8978 24.5 20.2794 24.342 20.5607 24.0607C20.842 23.7794 21 23.3978 21 23V20.75ZM16.5 23V20.75H19.5V23H16.5Z" fill="#FF8A00"/>
<path d="M12 20.75C12 20.3522 11.842 19.9706 11.5607 19.6893C11.2794 19.408 10.8978 19.25 10.5 19.25H7.5C7.10218 19.25 6.72064 19.408 6.43934 19.6893C6.15804 19.9706 6 20.3522 6 20.75V23C6 23.3978 6.15804 23.7794 6.43934 24.0607C6.72064 24.342 7.10218 24.5 7.5 24.5H10.5C10.8978 24.5 11.2794 24.342 11.5607 24.0607C11.842 23.7794 12 23.3978 12 23V20.75ZM7.5 23V20.75H10.5V23H7.5Z" fill="#FF8A00"/>
<path d="M37.5 24.5C37.8978 24.5 38.2794 24.342 38.5607 24.0607C38.842 23.7794 39 23.3978 39 23V20.75C39 20.3522 38.842 19.9706 38.5607 19.6893C38.2794 19.408 37.8978 19.25 37.5 19.25H34.5C34.1022 19.25 33.7206 19.408 33.4393 19.6893C33.158 19.9706 33 20.3522 33 20.75V23C33 23.3978 33.158 23.7794 33.4393 24.0607C33.7206 24.342 34.1022 24.5 34.5 24.5H37.5ZM34.5 20.75H37.5V23H34.5V20.75Z" fill="#FF8A00"/>
<path d="M21 27.5C21 27.1022 20.842 26.7206 20.5607 26.4393C20.2794 26.158 19.8978 26 19.5 26H16.5C16.1022 26 15.7206 26.158 15.4393 26.4393C15.158 26.7206 15 27.1022 15 27.5V29.75C15 30.1478 15.158 30.5294 15.4393 30.8107C15.7206 31.092 16.1022 31.25 16.5 31.25H19.5C19.8978 31.25 20.2794 31.092 20.5607 30.8107C20.842 30.5294 21 30.1478 21 29.75V27.5ZM16.5 29.75V27.5H19.5V29.75H16.5Z" fill="#FF8A00"/>
<path d="M12 27.5C12 27.1022 11.842 26.7206 11.5607 26.4393C11.2794 26.158 10.8978 26 10.5 26H7.5C7.10218 26 6.72064 26.158 6.43934 26.4393C6.15804 26.7206 6 27.1022 6 27.5V29.75C6 30.1478 6.15804 30.5294 6.43934 30.8107C6.72064 31.092 7.10218 31.25 7.5 31.25H10.5C10.8978 31.25 11.2794 31.092 11.5607 30.8107C11.842 30.5294 12 30.1478 12 29.75V27.5ZM7.5 29.75V27.5H10.5V29.75H7.5Z" fill="#FF8A00"/>
<path d="M19.5 32.75H16.5C16.1022 32.75 15.7206 32.908 15.4393 33.1893C15.158 33.4706 15 33.8522 15 34.25V36.5C15 36.8978 15.158 37.2794 15.4393 37.5607C15.7206 37.842 16.1022 38 16.5 38H19.5C19.8978 38 20.2794 37.842 20.5607 37.5607C20.842 37.2794 21 36.8978 21 36.5V34.25C21 33.8522 20.842 33.4706 20.5607 33.1893C20.2794 32.908 19.8978 32.75 19.5 32.75ZM16.5 36.5V34.25H19.5V36.5H16.5Z" fill="#FF8A00"/>
<path d="M25.5 24.5H28.5C28.8978 24.5 29.2794 24.342 29.5607 24.0607C29.842 23.7794 30 23.3978 30 23V20.75C30 20.3522 29.842 19.9706 29.5607 19.6893C29.2794 19.408 28.8978 19.25 28.5 19.25H25.5C25.1022 19.25 24.7206 19.408 24.4393 19.6893C24.158 19.9706 24 20.3522 24 20.75V23C24 23.3978 24.158 23.7794 24.4393 24.0607C24.7206 24.342 25.1022 24.5 25.5 24.5ZM25.5 20.75H28.5V23H25.5V20.75Z" fill="#FF8A00"/>
<path d="M24 29.75C24 30.1478 24.158 30.5294 24.4393 30.8107C24.7206 31.092 25.1022 31.25 25.5 31.25C25.6989 31.25 25.8897 31.171 26.0303 31.0303C26.171 30.8897 26.25 30.6989 26.25 30.5C26.25 30.3011 26.171 30.1103 26.0303 29.9697C25.8897 29.829 25.6989 29.75 25.5 29.75V27.5H28.5C28.6989 27.5 28.8897 27.421 29.0303 27.2803C29.171 27.1397 29.25 26.9489 29.25 26.75C29.25 26.5511 29.171 26.3603 29.0303 26.2197C28.8897 26.079 28.6989 26 28.5 26H25.5C25.1022 26 24.7206 26.158 24.4393 26.4393C24.158 26.7206 24 27.1022 24 27.5V29.75Z" fill="#FF8A00"/>
<path d="M10.5 32.75H7.5C7.10218 32.75 6.72064 32.908 6.43934 33.1893C6.15804 33.4706 6 33.8522 6 34.25V36.5C6 36.8978 6.15804 37.2794 6.43934 37.5607C6.72064 37.842 7.10218 38 7.5 38H10.5C10.8978 38 11.2794 37.842 11.5607 37.5607C11.842 37.2794 12 36.8978 12 36.5V34.25C12 33.8522 11.842 33.4706 11.5607 33.1893C11.2794 32.908 10.8978 32.75 10.5 32.75ZM7.5 36.5V34.25H10.5V36.5H7.5Z" fill="#FF8A00"/>
<path d="M35.25 26C33.3216 26 31.4366 26.5718 29.8332 27.6432C28.2298 28.7145 26.9801 30.2373 26.2422 32.0188C25.5042 33.8004 25.3111 35.7608 25.6873 37.6521C26.0636 39.5434 26.9922 41.2807 28.3557 42.6443C29.7193 44.0078 31.4566 44.9364 33.3479 45.3126C35.2392 45.6889 37.1996 45.4958 38.9812 44.7578C40.7627 44.0199 42.2855 42.7702 43.3568 41.1668C44.4282 39.5634 45 37.6784 45 35.75C44.997 33.165 43.9688 30.6868 42.141 28.859C40.3132 27.0312 37.8349 26.003 35.25 26ZM35.25 44C33.6183 44 32.0233 43.5161 30.6665 42.6096C29.3098 41.7031 28.2524 40.4146 27.628 38.9071C27.0036 37.3996 26.8402 35.7408 27.1585 34.1405C27.4769 32.5402 28.2626 31.0701 29.4164 29.9164C30.5702 28.7626 32.0402 27.9768 33.6405 27.6585C35.2408 27.3402 36.8996 27.5036 38.4071 28.128C39.9146 28.7524 41.2031 29.8098 42.1096 31.1665C43.0161 32.5232 43.5 34.1183 43.5 35.75C43.4974 37.9372 42.6274 40.0342 41.0808 41.5808C39.5342 43.1274 37.4372 43.9974 35.25 44Z" fill="#FF8A00"/>
<path d="M39.5834 32.606L33.7499 38.4395L31.0987 35.7875C30.9572 35.6509 30.7678 35.5753 30.5711 35.577C30.3745 35.5787 30.1864 35.6576 30.0473 35.7967C29.9083 35.9357 29.8294 36.1238 29.8277 36.3205C29.826 36.5171 29.9016 36.7066 30.0382 36.848L33.2197 40.0303C33.3603 40.1709 33.551 40.2499 33.7499 40.2499C33.9488 40.2499 34.1395 40.1709 34.2802 40.0303L40.6439 33.6665C40.7805 33.5251 40.8561 33.3356 40.8544 33.139C40.8527 32.9423 40.7738 32.7542 40.6348 32.6152C40.4957 32.4761 40.3076 32.3972 40.111 32.3955C39.9143 32.3938 39.7249 32.4694 39.5834 32.606Z" fill="#FF8A00"/>
</svg>
