<svg width="48" height="48" viewBox="0 0 48 48" fill="none" xmlns="http://www.w3.org/2000/svg">
<g clip-path="url(#clip0_175_983)">
<path d="M47.2001 0H11.2002C10.7584 0 10.4002 0.358199 10.4002 0.799998V12.8H12.0002V1.6H46.4001V45.5999C46.4078 46.0206 46.0832 46.373 45.6633 46.3999C45.5945 46.3999 45.5257 46.3943 45.4569 46.3927C45.3153 46.3887 45.1737 46.3855 45.0345 46.3711C45.0225 46.3711 45.0113 46.3711 44.9993 46.3663C42.3865 46.0807 40.3226 44.0188 40.0345 41.4063C40.0345 41.3951 40.0305 41.3831 40.0289 41.3719C40.0095 41.1818 39.9999 40.9909 40.0001 40.7999V39.1999C40.0001 38.7581 39.6419 38.3999 39.2001 38.3999H12.0002V24H10.4002V38.3999H4.00019C3.55839 38.3999 3.2002 38.7581 3.2002 39.1999V40.7999C3.2046 44.7745 6.42559 47.9955 10.4002 47.9999H45.6801C46.9783 47.9659 48.0101 46.8985 48.0001 45.5999V0.799998C48.0001 0.358199 47.6419 0 47.2001 0ZM10.4002 46.3999C7.30889 46.3964 4.80369 43.8912 4.80019 40.7999V39.9999H38.4001V40.7999C38.4012 41.0637 38.4164 41.3273 38.4457 41.5895C38.4529 41.6591 38.4665 41.7263 38.4761 41.7951C38.5025 41.9887 38.5345 42.1815 38.5769 42.3711C38.5913 42.4375 38.6097 42.5031 38.6265 42.5695C38.6753 42.7623 38.7305 42.9519 38.7945 43.1391C38.8129 43.1927 38.8321 43.2455 38.8521 43.2991C38.9249 43.4975 39.0073 43.6911 39.0977 43.8823C39.1169 43.9215 39.1345 43.9623 39.1537 43.9983C39.254 44.201 39.3641 44.398 39.4841 44.5895C39.5001 44.6151 39.5145 44.6415 39.5305 44.6695C39.6609 44.8738 39.8017 45.0714 39.9521 45.2615L39.9777 45.2959C40.1523 45.5152 40.3393 45.7243 40.5377 45.9223C40.71 46.093 40.8886 46.253 41.0737 46.4023L10.4002 46.3999Z" fill="#FF8A00"/>
<path d="M26.3999 22.3999C26.6121 22.3999 26.8155 22.3155 26.9655 22.1655L30.1655 18.9655C30.4778 18.6531 30.4778 18.1467 30.1655 17.8343L26.9655 14.6343C26.8155 14.4843 26.6121 14.3999 26.3999 14.3999H3.99999C1.7909 14.3999 0 16.1908 0 18.3999C0 20.609 1.7909 22.3999 3.99999 22.3999H26.3999ZM26.1935 16.1247L28.4687 18.3999L26.1935 20.6751L25.6247 18.3999L26.1935 16.1247ZM6.39999 15.9999H24.5759L24.1759 17.5999H7.99998V19.1999H24.1759L24.5759 20.7999H6.39999V15.9999ZM1.6 18.3999C1.6 17.0744 2.67449 15.9999 3.99999 15.9999H4.79999V20.7999H3.99999C2.67449 20.7999 1.6 19.7254 1.6 18.3999Z" fill="#FF8A00"/>
<path d="M18.3999 34.4H42.3999C42.8417 34.4 43.1999 34.0418 43.1999 33.6V9.60009C43.1998 9.15829 42.8416 8.80019 42.3997 8.80029C42.1876 8.80029 41.9843 8.88459 41.8343 9.03449L17.8343 33.0344C17.5219 33.3469 17.522 33.8534 17.8345 34.1658C17.9845 34.3157 18.1878 34.4 18.3999 34.4ZM41.5999 11.5313V13.6001H39.9999V15.2001H41.5999V16.8001H39.9999V18.4001H41.5999V20.0001H39.9999V21.6001H41.5999V23.2001H39.9999V24.8001H41.5999V26.4H39.9999V28H41.5999V29.6H39.9999V31.2H41.5999V32.8H39.9999V31.2H38.3999V32.8H36.7999V31.2H35.1999V32.8H33.5999V31.2H31.9999V32.8H30.3999V31.2H28.7999V32.8H27.1999V31.2H25.5999V32.8H23.9999V31.2H22.3999V32.8H20.3311L41.5999 11.5313Z" fill="#FF8A00"/>
<path d="M29.9878 29.6H37.5998C38.0416 29.6 38.3998 29.2418 38.3998 28.8V21.188C38.3997 20.7462 38.0415 20.3881 37.5996 20.3882C37.3875 20.3882 37.1842 20.4725 37.0342 20.6224L29.4222 28.2344C29.1098 28.5469 29.1099 29.0534 29.4224 29.3658C29.5724 29.5157 29.7757 29.6 29.9878 29.6ZM36.7998 23.12V28H31.9198L36.7998 23.12Z" fill="#FF8A00"/>
<path d="M36.7998 4.7998H20.7998V6.3998H36.7998V4.7998Z" fill="#FF8A00"/>
<path d="M39.1999 8H18.3999V9.6H39.1999V8Z" fill="#FF8A00"/>
<path d="M18.4001 24.7998H13.6001V26.3998H18.4001V24.7998Z" fill="#FF8A00"/>
<path d="M16.8001 28H13.6001V29.6H16.8001V28Z" fill="#FF8A00"/>
</g>
<defs>
<clipPath id="clip0_175_983">
<rect width="48" height="48" fill="white"/>
</clipPath>
</defs>
</svg>
