<svg width="48" height="48" viewBox="0 0 48 48" fill="none" xmlns="http://www.w3.org/2000/svg">
<path d="M47.6116 21.3652L37.2366 13.8651C36.9513 13.6587 36.5742 13.6298 36.2606 13.79C35.9471 13.9503 35.7498 14.2727 35.7498 14.6248V20.2904L26.8616 13.8651C26.5763 13.6587 26.1994 13.6298 25.8859 13.79C25.5722 13.9503 25.375 14.2727 25.375 14.6248V20.2904L16.4867 13.8651C16.2014 13.6587 15.8244 13.6298 15.5107 13.79C15.1972 13.9503 14.9999 14.2727 14.9999 14.6248V21.1874H13.0625L11.8298 3.31059C11.7957 2.81897 11.3872 2.4375 10.8944 2.4375H5.98059C5.48784 2.4375 5.07938 2.81887 5.04525 3.31059L3.81244 21.1875H0.9375C0.419719 21.1875 0 21.6072 0 22.125V44.625C0 45.1427 0.419719 45.5625 0.9375 45.5625H47.0625C47.5802 45.5625 48 45.1427 48 44.625V22.125C48 21.824 47.8555 21.5414 47.6116 21.3652ZM5.82131 19.3124H7.82194C8.33953 19.3124 8.75944 18.8926 8.75944 18.3749C8.75944 17.8571 8.33953 17.4374 7.82194 17.4374H5.95059L6.85566 4.31259H10.0193L11.183 21.1874H5.69203L5.82131 19.3124ZM14.9998 24.9376H9.77897C9.26137 24.9376 8.84147 25.3574 8.84147 25.8751C8.84147 26.3928 9.26137 26.8126 9.77897 26.8126H14.9998V28.6875H9.77897C9.26137 28.6875 8.84147 29.1073 8.84147 29.625C8.84147 30.1428 9.26137 30.5625 9.77897 30.5625H14.9998V32.4375H12.4943C11.9767 32.4375 11.5568 32.8573 11.5568 33.375C11.5568 33.8928 11.9767 34.3125 12.4943 34.3125H14.9998V36.1874H9.77897C9.26137 36.1874 8.84147 36.6072 8.84147 37.1249C8.84147 37.6426 9.26137 38.0624 9.77897 38.0624H14.9998V39.9372H9.77897C9.26137 39.9372 8.84147 40.357 8.84147 40.8747C8.84147 41.3925 9.26137 41.8122 9.77897 41.8122H14.9998V43.6874H1.875V23.0624H4.68403C4.68516 23.0624 4.68638 23.0626 4.6875 23.0626H12.1873C12.1881 23.0627 12.1888 23.0627 12.1892 23.0626C12.1905 23.0626 12.1915 23.0624 12.1928 23.0624H14.9998V24.9376ZM46.125 43.6874H16.8748V22.1249V16.4593L25.7632 22.8847C26.0484 23.091 26.4254 23.1202 26.7391 22.9597C27.0526 22.7994 27.2499 22.477 27.2499 22.1249V16.4593L36.1381 22.8846C36.4234 23.091 36.8003 23.1199 37.1138 22.9597C37.4275 22.7994 37.6247 22.477 37.6247 22.1249V16.4593L46.125 22.604V43.6874Z" fill="#FF8A00"/>
<path d="M9.77881 34.3125H9.80093C10.3187 34.3125 10.7384 33.8928 10.7384 33.375C10.7384 32.8573 10.3187 32.4375 9.80093 32.4375H9.77881C9.26121 32.4375 8.84131 32.8573 8.84131 33.375C8.84131 33.8927 9.26112 34.3125 9.77881 34.3125Z" fill="#FF8A00"/>
<path d="M27.7497 28.6875H23.9995C23.4817 28.6875 23.062 29.1073 23.062 29.625V33.3748C23.062 33.8925 23.4817 34.3123 23.9995 34.3123H27.7497C28.2674 34.3123 28.6872 33.8925 28.6872 33.3748V29.625C28.6872 29.1074 28.2674 28.6875 27.7497 28.6875ZM26.8122 32.4373H24.937V30.5625H26.8122V32.4373Z" fill="#FF8A00"/>
<path d="M34.3125 29.625V33.3748C34.3125 33.8925 34.7324 34.3123 35.25 34.3123H39.0002C39.518 34.3123 39.9377 33.8925 39.9377 33.3748V29.625C39.9377 29.1073 39.518 28.6875 39.0002 28.6875H35.25C34.7324 28.6875 34.3125 29.1074 34.3125 29.625ZM36.1875 30.5625H38.0627V32.4373H36.1875V30.5625Z" fill="#FF8A00"/>
<path d="M30.1584 39.937H30.1362C29.6186 39.937 29.1987 40.3568 29.1987 40.8745C29.1987 41.3923 29.6186 41.812 30.1362 41.812H30.1584C30.6761 41.812 31.0959 41.3923 31.0959 40.8745C31.0959 40.3568 30.6761 39.937 30.1584 39.937Z" fill="#FF8A00"/>
<path d="M27.443 39.937H24C23.4822 39.937 23.0625 40.3568 23.0625 40.8745C23.0625 41.3923 23.4822 41.812 24 41.812H27.443C27.9606 41.812 28.3805 41.3923 28.3805 40.8745C28.3805 40.3568 27.9606 39.937 27.443 39.937Z" fill="#FF8A00"/>
</svg>
