<svg width="49" height="48" viewBox="0 0 49 48" fill="none" xmlns="http://www.w3.org/2000/svg">
<g clip-path="url(#clip0_175_1022)">
<path d="M46.8498 15.7203H46.3917L42.0959 4.15485C41.7198 3.14226 40.7414 2.46191 39.6613 2.46191H9.33866C8.25856 2.46191 7.28009 3.14226 6.90397 4.15485L2.60834 15.7203H2.15019C1.24025 15.7203 0.5 16.4606 0.5 17.3705V18.6963C0.5 19.6063 1.24025 20.3465 2.15019 20.3465H2.39412V35.7581C2.39412 36.1464 2.70884 36.4612 3.09725 36.4612C3.48566 36.4612 3.80037 36.1464 3.80037 35.7581V20.3465H14.8404C15.4582 20.3465 16.0391 20.1059 16.476 19.669L24.5 11.6448L32.5242 19.669C32.961 20.1059 33.5419 20.3464 34.1597 20.3464H45.1997V22.2105C45.1997 22.5989 45.5144 22.9137 45.9028 22.9137C46.2912 22.9137 46.606 22.5989 46.606 22.2105V20.3464H46.8499C47.7598 20.3464 48.5001 19.6062 48.5001 18.6962V17.3704C48.5 16.4606 47.7598 15.7203 46.8498 15.7203ZM8.22219 4.64441C8.39469 4.18007 8.84338 3.86816 9.33866 3.86816H39.6613C40.1565 3.86816 40.6052 4.18016 40.7777 4.64441L44.8916 15.7203H35.1178L26.1356 6.73813C25.6987 6.30126 25.1179 6.0606 24.5 6.0606C23.8821 6.0606 23.3013 6.30116 22.8644 6.73813L13.8822 15.7203H4.10834L8.22219 4.64441ZM47.0938 18.6963C47.0938 18.8309 46.9843 18.9403 46.8498 18.9403H34.1597C33.9175 18.9403 33.6897 18.8459 33.5185 18.6747L24.9972 10.1534C24.8653 10.0214 24.6865 9.94738 24.4999 9.94738C24.3133 9.94738 24.1347 10.0214 24.0027 10.1534L15.4814 18.6747C15.3102 18.8459 15.0823 18.9403 14.8401 18.9403H2.15019C2.01566 18.9403 1.90625 18.8309 1.90625 18.6963V17.3705C1.90625 17.236 2.01566 17.1266 2.15019 17.1266H14.1734C14.3599 17.1266 14.5387 17.0525 14.6707 16.9206L23.8589 7.73245C24.0301 7.56116 24.2578 7.46685 24.5001 7.46685C24.7423 7.46685 24.9701 7.56116 25.1413 7.73245L34.3295 16.9206C34.4614 17.0525 34.6402 17.1266 34.8268 17.1266H46.85C46.9845 17.1266 47.0939 17.236 47.0939 17.3705V18.6963H47.0938Z" fill="#FF8A00"/>
<path d="M42.778 39.8552C43.1664 39.8552 43.4811 39.5404 43.4811 39.1521V26.6514C43.4811 26.2631 43.1664 25.9482 42.778 25.9482H33.3076C32.9192 25.9482 32.6045 26.2631 32.6045 26.6514V39.1521C32.6045 39.5404 32.9192 39.8552 33.3076 39.8552H42.778ZM42.0748 35.4185H38.7459V32.0896H42.0748V35.4185ZM37.3396 35.4185H34.0107V32.0896H37.3396V35.4185ZM42.0748 38.449H34.0107V36.8247H42.0748V38.449ZM42.0748 30.6833H38.7459V27.3544H42.0748V30.6833ZM37.3396 27.3545V30.6834H34.0107V27.3545H37.3396Z" fill="#FF8A00"/>
<path d="M15.6925 39.8552C16.0809 39.8552 16.3956 39.5404 16.3956 39.1521V26.6514C16.3956 26.2631 16.0809 25.9482 15.6925 25.9482H6.22217C5.83376 25.9482 5.51904 26.2631 5.51904 26.6514V39.1521C5.51904 39.5404 5.83376 39.8552 6.22217 39.8552H15.6925ZM14.9894 35.4185H11.6605V32.0896H14.9894V35.4185ZM10.2543 35.4185H6.92529V32.0896H10.2543V35.4185ZM14.9894 38.449H6.92529V36.8247H14.9894V38.449ZM14.9894 30.6833H11.6605V27.3544H14.9894V30.6833ZM10.2543 27.3545V30.6834H6.92529V27.3545H10.2543Z" fill="#FF8A00"/>
<path d="M26.7728 28.9785H22.2271C21.8386 28.9785 21.5239 29.2933 21.5239 29.6816V32.7121C21.5239 33.1004 21.8386 33.4152 22.2271 33.4152H26.7728C27.1612 33.4152 27.4759 33.1004 27.4759 32.7121V29.6816C27.4759 29.2933 27.1612 28.9785 26.7728 28.9785ZM26.0697 32.009H22.9302V30.3848H26.0697V32.009Z" fill="#FF8A00"/>
<path d="M28.2338 20.1169C28.2338 18.0582 26.5589 16.3833 24.5002 16.3833C22.4414 16.3833 20.7666 18.0582 20.7666 20.1169C20.7666 22.1756 22.4414 23.8506 24.5002 23.8506C26.5589 23.8506 28.2338 22.1756 28.2338 20.1169ZM22.1728 20.1169C22.1728 18.8336 23.2169 17.7896 24.5002 17.7896C25.7834 17.7896 26.8275 18.8336 26.8275 20.1169C26.8275 21.4001 25.7834 22.4443 24.5002 22.4443C23.2169 22.4443 22.1728 21.4002 22.1728 20.1169Z" fill="#FF8A00"/>
<path d="M47.7969 40.9116H46.606V25.5C46.606 25.1117 46.2912 24.7969 45.9028 24.7969C45.5144 24.7969 45.1997 25.1117 45.1997 25.5V40.9116H30.5065V26.6517C30.5065 26.2634 30.1917 25.9486 29.8033 25.9486H19.1967C18.8083 25.9486 18.4935 26.2634 18.4935 26.6517V40.9116H3.80028V39.0474C3.80028 38.6591 3.48556 38.3443 3.09716 38.3443C2.70875 38.3443 2.39403 38.6591 2.39403 39.0474V40.9116H1.20312C0.814719 40.9116 0.5 41.2264 0.5 41.6147V44.8346C0.5 45.2229 0.814719 45.5378 1.20312 45.5378H47.7969C48.1853 45.5378 48.5 45.2229 48.5 44.8346V41.6147C48.5 41.2264 48.1853 40.9116 47.7969 40.9116ZM19.8998 35.7833H20.9014C21.2898 35.7833 21.6045 35.4685 21.6045 35.0802C21.6045 34.6919 21.2898 34.3771 20.9014 34.3771H19.8998V27.3548H29.1003V40.9116H19.8998V35.7833ZM47.0938 44.1315H1.90625V42.3178H47.0938V44.1315Z" fill="#FF8A00"/>
</g>
<defs>
<clipPath id="clip0_175_1022">
<rect width="48" height="48" fill="white" transform="translate(0.5)"/>
</clipPath>
</defs>
</svg>
