<svg width="48" height="48" viewBox="0 0 48 48" fill="none" xmlns="http://www.w3.org/2000/svg">
<g clip-path="url(#clip0_175_999)">
<path d="M47.8629 32.9137C47.4443 31.5967 45.9849 30.4328 43.7697 30.9882C43.7644 30.9896 43.7591 30.9909 43.7539 30.9924L34.4972 33.4876C34.1634 32.0335 32.7692 31.036 31.2534 31.2239C30.7187 31.2904 28.9095 31.5475 26.9941 31.8196C25.1659 32.0794 23.2754 32.348 22.7559 32.4125C21.6115 32.5547 20.0886 32.4342 18.476 32.3068C17.9071 32.2619 17.3187 32.2153 16.7166 32.1774C16.1986 32.1434 15.7545 32.5373 15.7219 33.054C15.6893 33.5708 16.0818 34.0162 16.5986 34.0487C17.1859 34.0857 17.7667 34.1317 18.3283 34.176C20.0385 34.3112 21.6537 34.4388 22.9869 34.2731C23.5228 34.2066 25.3371 33.9488 27.2579 33.6759C29.081 33.4167 30.9662 33.149 31.4846 33.0845C32.0748 33.012 32.6154 33.4285 32.6887 34.0149C32.712 34.2004 32.7737 34.6931 31.4772 35.2875C28.8109 36.5099 25.9691 37.5563 23.6809 38.1583C23.1801 38.29 22.881 38.8027 23.0127 39.3035C23.1444 39.8043 23.657 40.1032 24.1579 39.9716C26.5459 39.3435 29.4985 38.2574 32.2587 36.9919C33.2178 36.5522 33.8028 36.0399 34.1443 35.5245L44.2333 32.8048C45.3445 32.5285 45.9144 32.9727 46.076 33.4815C46.2319 33.9718 46.0361 34.6034 45.2483 34.9104C44.463 35.2062 42.584 36.0236 40.2067 37.0579C37.053 38.4298 33.1283 40.1372 29.9981 41.3923C26.1482 42.9362 25.0534 43.1418 20.9798 43.0983L14.5618 43.0272C14.5583 43.0271 14.5548 43.0271 14.5514 43.0271C14.2004 43.0271 13.8783 43.2234 13.7175 43.5361L12.8367 45.2502C12.8063 45.3095 12.7822 45.3718 12.765 45.4361C12.6348 45.9217 12.471 46.1247 11.793 46.1247H2.35818C2.25562 46.1247 2.14528 46.0612 2.05547 45.9507C1.97887 45.8564 1.8105 45.5901 1.90144 45.1557C3.03046 39.7664 5.25533 36.4278 8.70335 34.9492C9.17922 34.7451 9.39953 34.1939 9.19544 33.718C8.99134 33.2423 8.44047 33.0219 7.96432 33.226C3.9133 34.9631 1.32984 38.7397 0.0662861 44.7712C-0.114088 45.6325 0.0804423 46.4932 0.600003 47.1328C1.04747 47.6838 1.68825 47.9997 2.35809 47.9997H11.793C13.2123 47.9997 14.1624 47.3174 14.547 46.0243L15.1204 44.9085L20.959 44.9731C25.2642 45.0219 26.6303 44.7628 30.6959 43.1325C33.8513 41.8672 37.7899 40.1539 40.9546 38.7772C43.2196 37.7918 45.1758 36.9408 45.9135 36.6634C45.9164 36.6623 45.9194 36.6611 45.9224 36.66C47.7529 35.9509 48.2841 34.2385 47.8629 32.9137Z" fill="#FF8A00"/>
<path d="M20.2505 11.5166C21.8013 11.5166 23.063 10.2549 23.063 8.7041C23.063 7.15329 21.8013 5.8916 20.2505 5.8916C18.6997 5.8916 17.438 7.15329 17.438 8.7041C17.438 10.2549 18.6997 11.5166 20.2505 11.5166ZM20.2505 7.7666C20.7674 7.7666 21.188 8.18716 21.188 8.7041C21.188 9.22104 20.7674 9.6416 20.2505 9.6416C19.7336 9.6416 19.313 9.22104 19.313 8.7041C19.313 8.18716 19.7336 7.7666 20.2505 7.7666Z" fill="#FF8A00"/>
<path d="M24.938 16.204C24.938 17.7549 26.1997 19.0166 27.7505 19.0166C29.3013 19.0166 30.563 17.7549 30.563 16.204C30.563 14.6532 29.3013 13.3916 27.7505 13.3916C26.1997 13.3916 24.938 14.6532 24.938 16.204ZM28.688 16.204C28.688 16.721 28.2674 17.1416 27.7505 17.1416C27.2336 17.1416 26.813 16.721 26.813 16.204C26.813 15.6871 27.2336 15.2666 27.7505 15.2666C28.2674 15.2666 28.688 15.6871 28.688 16.204Z" fill="#FF8A00"/>
<path d="M20.2843 18.8907C20.432 18.9759 20.5931 19.0165 20.7521 19.0165C21.0761 19.0165 21.3913 18.8483 21.5649 18.5475L28.06 7.29755C28.319 6.84914 28.1653 6.27586 27.7169 6.01692C27.2684 5.75789 26.6951 5.91174 26.4363 6.36005L19.9412 17.61C19.6823 18.0585 19.8359 18.6317 20.2843 18.8907Z" fill="#FF8A00"/>
<path d="M11.2889 18.587L22.5452 29.9268C22.9322 30.3159 23.4475 30.5312 23.9964 30.5328H24.0023C24.5491 30.5328 25.0634 30.3205 25.4553 29.9306L36.7953 18.5065C37.5938 17.7032 37.5901 16.3999 36.7869 15.601C36.3972 15.2134 35.8825 15 35.3379 15H34.3129V2.81249C34.3129 1.26168 33.0512 0 31.5004 0H16.5005C14.9497 0 13.688 1.26168 13.688 2.81249V14.9999H12.6664C11.5316 14.9999 10.6084 15.9232 10.6084 17.0578C10.6084 17.6418 10.8559 18.1968 11.2889 18.587ZM12.6664 16.8749H14.6255C15.1432 16.8749 15.563 16.4551 15.563 15.9374V2.81249C15.563 2.29555 15.9835 1.87499 16.5005 1.87499H31.5004C32.0173 1.87499 32.4379 2.29555 32.4379 2.81249V15.9374C32.4379 16.4551 32.8577 16.8749 33.3754 16.8749H35.3379C35.3644 16.8749 35.4161 16.8822 35.4646 16.9303C35.5349 17.0003 35.5353 17.1144 35.4654 17.1847C35.4652 17.1849 35.465 17.1852 35.4647 17.1853L24.1287 28.6054C24.0854 28.6486 24.0361 28.6577 24.0021 28.6577C24.0019 28.6577 24.0018 28.6577 24.0016 28.6577C23.9676 28.6576 23.9179 28.6483 23.8752 28.6053L12.5984 17.2447C12.5817 17.228 12.5646 17.2119 12.5468 17.1964C12.523 17.1759 12.4832 17.1306 12.4832 17.0577C12.4834 16.957 12.5654 16.8749 12.6664 16.8749Z" fill="#FF8A00"/>
<path d="M12.4386 32.1743C11.9209 32.1743 11.5015 32.5941 11.5015 33.1118C11.5015 33.6295 11.9215 34.0493 12.4392 34.0493C12.9569 34.0493 13.3767 33.6295 13.3767 33.1118C13.3767 32.5941 12.9569 32.1743 12.4392 32.1743H12.4386Z" fill="#FF8A00"/>
</g>
<defs>
<clipPath id="clip0_175_999">
<rect width="48" height="48" fill="white"/>
</clipPath>
</defs>
</svg>
