<svg width="32" height="32" viewBox="0 0 32 32" fill="none" xmlns="http://www.w3.org/2000/svg">
<circle cx="16" cy="16" r="15" stroke="#FF8A00" stroke-width="2"/>
<g clip-path="url(#clip0_278_988)">
<path d="M22.5912 11.9788C22.5618 11.9393 22.5248 11.906 22.4825 11.8808C22.4402 11.8556 22.3933 11.839 22.3445 11.8319C22.2958 11.8248 22.2461 11.8274 22.1983 11.8395C22.1506 11.8517 22.1057 11.8731 22.0662 11.9026L16.0175 16.4176C15.9958 16.4338 15.9695 16.4426 15.9425 16.4426C15.9154 16.4426 15.8891 16.4338 15.8675 16.4176L9.93747 11.8826C9.89832 11.8527 9.85367 11.8308 9.80607 11.8182C9.75847 11.8056 9.70884 11.8024 9.66003 11.809C9.61123 11.8156 9.56419 11.8317 9.5216 11.8564C9.47902 11.8811 9.44172 11.914 9.41185 11.9532C9.38197 11.9923 9.3601 12.037 9.34748 12.0846C9.33486 12.1322 9.33174 12.1818 9.3383 12.2306C9.34486 12.2794 9.36097 12.3265 9.3857 12.369C9.41044 12.4116 9.44332 12.4489 9.48247 12.4788L14.145 16.0451L9.53372 19.5201C9.494 19.5497 9.4605 19.5868 9.43514 19.6294C9.40977 19.672 9.39305 19.7192 9.38591 19.7682C9.37877 19.8172 9.38136 19.8672 9.39353 19.9152C9.4057 19.9633 9.42722 20.0085 9.45685 20.0482C9.48648 20.0879 9.52364 20.1214 9.56622 20.1468C9.60879 20.1721 9.65595 20.1889 9.70499 20.196C9.75403 20.2031 9.804 20.2005 9.85204 20.1884C9.90008 20.1762 9.94525 20.1547 9.98497 20.1251L14.7637 16.5176L15.4112 17.0176C15.5622 17.1331 15.7467 17.1964 15.9368 17.1977C16.127 17.1991 16.3124 17.1385 16.465 17.0251L17.145 16.5176L21.98 20.1251C22.0195 20.1545 22.0643 20.1759 22.1121 20.188C22.1598 20.2001 22.2095 20.2027 22.2583 20.1957C22.307 20.1886 22.3539 20.172 22.3962 20.1468C22.4386 20.1216 22.4755 20.0883 22.505 20.0488C22.5344 20.0093 22.5558 19.9644 22.568 19.9167C22.5801 19.8689 22.5827 19.8193 22.5756 19.7705C22.5685 19.7218 22.5519 19.6749 22.5267 19.6326C22.5015 19.5902 22.4682 19.5533 22.4287 19.5238L17.7712 16.0438L22.515 12.5001C22.5937 12.4406 22.6458 12.3526 22.66 12.2551C22.6743 12.1575 22.6496 12.0583 22.5912 11.9788Z" fill="#FF8A00"/>
<path d="M22.125 10.375H9.875C9.37772 10.375 8.90081 10.5725 8.54917 10.9242C8.19754 11.2758 8 11.7527 8 12.25V19.75C8 20.2473 8.19754 20.7242 8.54917 21.0758C8.90081 21.4275 9.37772 21.625 9.875 21.625H22.125C22.6223 21.625 23.0992 21.4275 23.4508 21.0758C23.8025 20.7242 24 20.2473 24 19.75V12.25C24 11.7527 23.8025 11.2758 23.4508 10.9242C23.0992 10.5725 22.6223 10.375 22.125 10.375ZM23.25 19.75C23.25 20.0484 23.1315 20.3345 22.9205 20.5455C22.7095 20.7565 22.4234 20.875 22.125 20.875H9.875C9.57663 20.875 9.29048 20.7565 9.0795 20.5455C8.86853 20.3345 8.75 20.0484 8.75 19.75V12.25C8.75 11.9516 8.86853 11.6655 9.0795 11.4545C9.29048 11.2435 9.57663 11.125 9.875 11.125H22.125C22.4234 11.125 22.7095 11.2435 22.9205 11.4545C23.1315 11.6655 23.25 11.9516 23.25 12.25V19.75Z" fill="#FF8A00"/>
</g>
<defs>
<clipPath id="clip0_278_988">
<rect width="16" height="16" fill="white" transform="translate(8 8)"/>
</clipPath>
</defs>
</svg>
