<svg width="104" height="40" viewBox="0 0 104 40" fill="none" xmlns="http://www.w3.org/2000/svg">
<rect width="104" height="40" fill="#FF8A00"/>
<path d="M19.5586 21.8047C19.2305 21.8047 18.918 21.7422 18.6211 21.6172C18.332 21.4844 18.0781 21.3125 17.8594 21.1016C17.6406 20.8828 17.4688 20.6289 17.3438 20.3398C17.2188 20.043 17.1562 19.7305 17.1562 19.4023V14.5977C17.1562 14.2695 17.2188 13.9609 17.3438 13.6719C17.4688 13.375 17.6406 13.1211 17.8594 12.9102C18.0781 12.6914 18.332 12.5195 18.6211 12.3945C18.918 12.2617 19.2305 12.1953 19.5586 12.1953H27.7148C28.043 12.1953 28.3516 12.2617 28.6406 12.3945C28.9375 12.5195 29.1953 12.6914 29.4141 12.9102C29.6328 13.1211 29.8047 13.375 29.9297 13.6719C30.0547 13.9609 30.1172 14.2695 30.1172 14.5977V16.7656H27.7148V14.5977H19.5586V19.4023H27.7148C28.043 19.4023 28.3516 19.4648 28.6406 19.5898C28.9375 19.7148 29.1953 19.8867 29.4141 20.1055C29.6328 20.3242 29.8047 20.582 29.9297 20.8789C30.0547 21.168 30.1172 21.4766 30.1172 21.8047V26.5977C30.1172 26.9258 30.0547 27.2383 29.9297 27.5352C29.8047 27.8242 29.6328 28.0781 29.4141 28.2969C29.1953 28.5156 28.9375 28.6875 28.6406 28.8125C28.3516 28.9375 28.043 29 27.7148 29H19.3242C18.9961 29 18.6836 28.9375 18.3867 28.8125C18.0977 28.6875 17.8438 28.5156 17.625 28.2969C17.4062 28.0781 17.2344 27.8242 17.1094 27.5352C16.9844 27.2383 16.9219 26.9258 16.9219 26.5977V24.4414H19.3242V26.5977H27.7148V21.8047H19.5586ZM36.8555 12.1953V29H34.4531V12.1953H36.8555ZM41.1797 29V12.1953H50.3789C53.0977 12.1953 54.457 13.5586 54.457 16.2852V18.6758C54.457 21.4023 53.0977 22.7656 50.3789 22.7656H43.582V29H41.1797ZM43.582 20.3633H50.25C50.8906 20.3633 51.3516 20.2227 51.6328 19.9414C51.9141 19.6602 52.0547 19.1992 52.0547 18.5586V16.4023C52.0547 15.7617 51.9141 15.3008 51.6328 15.0195C51.3516 14.7383 50.8906 14.5977 50.25 14.5977H43.582V20.3633ZM57.8203 12.1953H70.0664V14.5977H60.2227V19.4023H68.625V21.8047H60.2227V26.5977H70.0664V29H57.8203V12.1953ZM75.2461 12.1953L79.7344 18.4883L84.2461 12.1953H87.1523L81.1992 20.5273L87.2812 29H84.375L79.7344 22.543L75.1289 29H72.2227L78.3047 20.5273L72.3516 12.1953H75.2461Z" fill="white"/>
</svg>
