<svg width="32" height="32" viewBox="0 0 32 32" fill="none" xmlns="http://www.w3.org/2000/svg">
<g clip-path="url(#clip0_76_584)">
<path d="M16 0C7.15723 0 0 7.15601 0 16C0 18.8064 0.731934 21.5474 2.12183 23.9648L0.0603027 30.3667C-0.0834961 30.813 0.034668 31.3022 0.366211 31.6338C0.69458 31.9622 1.18262 32.0847 1.6333 31.9397L8.03516 29.8782C10.4526 31.2681 13.1936 32 16 32C24.8428 32 32 24.844 32 16C32 7.15723 24.844 0 16 0ZM16 29.5C13.4651 29.5 10.9941 28.7927 8.85425 27.4546C8.54639 27.2622 8.16406 27.2102 7.80835 27.3247L3.18701 28.813L4.67529 24.1917C4.78809 23.8411 4.74048 23.4583 4.54517 23.1458C3.20728 21.0059 2.5 18.5349 2.5 16C2.5 8.55615 8.55615 2.5 16 2.5C23.4438 2.5 29.5 8.55615 29.5 16C29.5 23.4438 23.4438 29.5 16 29.5ZM17.5625 16C17.5625 16.8628 16.863 17.5625 16 17.5625C15.137 17.5625 14.4375 16.8628 14.4375 16C14.4375 15.137 15.137 14.4375 16 14.4375C16.863 14.4375 17.5625 15.137 17.5625 16ZM23.8125 16C23.8125 16.8628 23.113 17.5625 22.25 17.5625C21.387 17.5625 20.6875 16.8628 20.6875 16C20.6875 15.137 21.387 14.4375 22.25 14.4375C23.113 14.4375 23.8125 15.137 23.8125 16ZM11.3125 16C11.3125 16.8628 10.613 17.5625 9.75 17.5625C8.88721 17.5625 8.1875 16.8628 8.1875 16C8.1875 15.137 8.88721 14.4375 9.75 14.4375C10.613 14.4375 11.3125 15.137 11.3125 16Z" fill="#707060"/>
</g>
<defs>
<clipPath id="clip0_76_584">
<rect width="32" height="32" fill="white"/>
</clipPath>
</defs>
</svg>
