<svg width="32" height="32" viewBox="0 0 32 32" fill="none" xmlns="http://www.w3.org/2000/svg">
<path d="M27.4098 5.58596C26.3888 4.56496 25.0468 4.05396 23.7048 4.05396C22.3628 4.05396 21.0208 4.56396 19.9998 5.58596L8.15277 17.431C6.93677 18.647 6.93677 20.627 8.15477 21.845C9.37177 23.062 11.3498 23.062 12.5668 21.845L20.8268 13.585L19.4128 12.171L11.1528 20.431C10.7158 20.867 10.0068 20.868 9.56677 20.429C9.12977 19.992 9.12977 19.282 9.56677 18.845L21.4138 6.99996C22.6778 5.73796 24.7318 5.73696 25.9998 7.00396C27.2628 8.26696 27.2628 10.323 25.9998 11.586L14.1508 23.433C12.0598 25.522 8.65977 25.522 6.56477 23.427C4.47477 21.337 4.47477 17.937 6.56477 15.847L16.8278 5.58596L15.4138 4.17196L5.15077 14.433C2.28077 17.303 2.28077 21.972 5.15677 24.847C8.02577 27.717 12.6958 27.717 15.5648 24.847L27.4138 13C29.4568 10.957 29.4568 7.63296 27.4098 5.58596Z" fill="#111918"/>
</svg>
