<svg width="32" height="32" viewBox="0 0 32 32" fill="none" xmlns="http://www.w3.org/2000/svg">
<circle cx="16" cy="16" r="15" stroke="#494949" stroke-width="2"/>
<path fill-rule="evenodd" clip-rule="evenodd" d="M9.8016 9H12.6072C13.0481 9 13.4088 9.36072 13.4088 9.8016C13.4088 10.8036 13.5691 11.7655 13.8657 12.6633C13.9539 12.9438 13.8897 13.2565 13.6653 13.4809L11.9018 15.2444C13.0561 17.5129 14.9158 19.3646 17.1843 20.5269L18.9478 18.7634C19.1081 18.6111 19.3085 18.531 19.5169 18.531C19.5971 18.531 19.6853 18.539 19.7654 18.571C20.6632 18.8676 21.6331 19.028 22.6271 19.028C23.068 19.028 23.4287 19.3887 23.4287 19.8295V22.6271C23.4287 23.068 23.068 23.4287 22.6271 23.4287C15.1001 23.4287 9 17.3286 9 9.8016C9 9.36072 9.36072 9 9.8016 9ZM11.8378 10.6035C11.8859 11.3169 12.0062 12.0143 12.1986 12.6796L11.2367 13.6416C10.908 12.6796 10.6996 11.6616 10.6274 10.6035H11.8378ZM19.7412 20.2383C20.4226 20.4307 21.12 20.5509 21.8254 20.599V21.7934C20.7673 21.7212 19.7492 21.5128 18.7793 21.1922L19.7412 20.2383Z" fill="#494949"/>
</svg>
