<svg width="32" height="32" viewBox="0 0 32 32" fill="none" xmlns="http://www.w3.org/2000/svg">
<path d="M31.275 15.1124C31.2375 19.0749 30.2187 22.1749 28.1 24.8686C25.825 27.7624 22.8625 29.5999 19.2375 30.3436C16.4375 30.9124 13.7125 30.6624 11.0375 29.6936C10.4437 29.4749 9.86246 29.2186 9.30621 28.9124C9.13746 28.8186 8.99371 28.8061 8.80621 28.8686C6.27496 29.6874 3.73746 30.4999 1.19996 31.3061C1.08746 31.3436 0.937464 31.4499 0.849964 31.3686C0.749964 31.2686 0.874964 31.1186 0.912464 30.9999C1.41871 29.4936 1.92496 27.9811 2.43746 26.4749C2.74996 25.5561 3.04996 24.6436 3.37496 23.7311C3.46246 23.4936 3.43121 23.3124 3.29996 23.0936C2.65621 21.9936 2.18121 20.8186 1.84371 19.5874C1.21246 17.2749 1.14371 14.9374 1.63746 12.5999C2.17496 10.0499 3.29996 7.77485 5.03121 5.81235C7.12496 3.43735 9.70621 1.8686 12.775 1.11235C14.7312 0.631101 16.7062 0.556102 18.6937 0.881102C21.2937 1.3061 23.6375 2.33735 25.6812 3.99985C27.8062 5.7311 29.3562 7.8811 30.3312 10.4624C30.8687 11.8561 31.2937 14.1374 31.275 15.1124ZM4.66246 27.5936C6.21246 27.0936 7.69372 26.6186 9.16247 26.1374C9.35622 26.0749 9.51246 26.0874 9.68121 26.1999C10.2437 26.5749 10.85 26.8749 11.475 27.1374C13.5062 27.9999 15.6187 28.3124 17.8 28.0311C20.475 27.6874 22.825 26.6124 24.8 24.7436C27.2875 22.3874 28.6187 19.4999 28.7375 16.0874C28.85 12.7436 27.775 9.8061 25.5312 7.31235C23.4 4.9436 20.725 3.5936 17.5687 3.2561C14.825 2.96235 12.2562 3.5561 9.88122 4.9811C7.84997 6.2061 6.29371 7.87485 5.21246 9.9811C4.01871 12.2999 3.61246 14.7624 3.95621 17.3436C4.21246 19.2936 4.91246 21.0874 6.03746 22.6999C6.16246 22.8811 6.19996 23.0311 6.12496 23.2436C5.89371 23.8811 5.68746 24.5249 5.46871 25.1624C5.20621 25.9499 4.94996 26.7374 4.66246 27.5936Z" fill="#51C85D"/>
<path d="M8.81268 12.1687C8.84393 10.6812 9.36893 9.575 10.3627 8.69375C10.6814 8.40625 11.0752 8.28125 11.5189 8.34375C11.7064 8.36875 11.8939 8.3875 12.0814 8.375C12.4314 8.35625 12.6689 8.525 12.7877 8.83125C13.2064 9.91875 13.6127 11.0062 14.0189 12.1C14.1564 12.475 13.9189 12.7687 13.7189 13.0375C13.4877 13.3562 13.2064 13.6375 12.9314 13.9187C12.6502 14.2062 12.6127 14.3687 12.8064 14.7187C13.9377 16.775 15.5252 18.3562 17.6814 19.3312C17.7564 19.3625 17.8314 19.4062 17.9064 19.4437C18.1939 19.575 18.4502 19.5437 18.6689 19.2937C19.0689 18.825 19.5064 18.3937 19.8752 17.9C20.1189 17.575 20.2877 17.5187 20.6564 17.6812C21.7564 18.1562 22.7877 18.7562 23.8377 19.3375C24.0314 19.4437 24.1002 19.6062 24.0939 19.8312C24.0377 21.675 22.9814 22.6375 21.1252 23.0625C20.2252 23.2687 19.3939 23.0437 18.5689 22.7437C16.8377 22.1187 15.1689 21.3812 13.7689 20.1437C12.6564 19.1562 11.6752 18.0562 10.8439 16.825C10.2064 15.875 9.54393 14.9437 9.17518 13.8375C8.96268 13.25 8.80643 12.65 8.81268 12.1687Z" fill="#51C85D"/>
</svg>
